<?xml version="1.0" standalone="no"?>
<!DOCTYPE svg PUBLIC "-//W3C//DTD SVG 20010904//EN"
 "http://www.w3.org/TR/2001/REC-SVG-20010904/DTD/svg10.dtd">
<svg version="1.0" xmlns="http://www.w3.org/2000/svg"
 width="512.000000pt" height="512.000000pt" viewBox="0 0 512.000000 512.000000"
 preserveAspectRatio="xMidYMid meet">
<metadata>
Created by potrace 1.11, written by Peter Selinger 2001-2013
</metadata>
<g transform="translate(0.000000,512.000000) scale(0.100000,-0.100000)"
fill="#000000" stroke="none">
<path d="M2476 4178 c-6 -4 -35 -8 -64 -10 -29 -2 -52 -6 -52 -10 0 -4 -9 -5
-20 -3 -11 2 -22 -1 -26 -6 -3 -5 -14 -7 -25 -4 -10 4 -19 2 -19 -3 0 -5 -12
-12 -27 -15 -33 -5 -126 -39 -133 -48 -3 -4 -25 -16 -50 -29 -25 -12 -59 -33
-77 -46 -17 -13 -35 -24 -40 -24 -5 0 -15 -9 -23 -20 -8 -11 -20 -20 -27 -20
-7 0 -13 -5 -13 -11 0 -5 -5 -7 -10 -4 -6 4 -9 3 -8 -2 2 -5 -16 -28 -40 -51
-24 -23 -40 -42 -37 -42 3 0 -7 -14 -24 -32 -16 -18 -36 -43 -43 -57 -7 -15
-16 -28 -19 -31 -10 -7 -59 -116 -59 -129 0 -6 -4 -11 -10 -11 -5 0 -7 -7 -4
-15 4 -8 2 -15 -3 -15 -8 0 -12 -15 -15 -57 -1 -7 -5 -13 -9 -13 -4 0 -6 -11
-4 -25 1 -14 -1 -28 -6 -30 -4 -3 -6 -14 -4 -25 2 -11 1 -20 -3 -20 -4 0 -7
-45 -7 -100 -1 -62 3 -100 10 -100 5 0 3 -5 -5 -10 -8 -5 -10 -10 -3 -10 6 0
10 -13 9 -30 -1 -16 1 -30 4 -30 3 0 5 -13 4 -30 -1 -16 3 -30 9 -30 6 0 8 -3
4 -6 -11 -11 59 -184 75 -184 4 0 8 -6 8 -14 0 -7 12 -26 28 -43 15 -16 43
-48 62 -71 19 -23 41 -42 48 -42 7 0 10 -4 7 -10 -3 -5 1 -10 9 -10 9 0 16 -4
16 -8 0 -5 11 -15 25 -22 13 -7 22 -18 18 -23 -3 -6 -1 -7 5 -4 13 9 44 -2 37
-13 -3 -4 7 -11 20 -14 16 -4 23 -11 19 -18 -4 -7 -3 -8 4 -4 14 8 94 -33 86
-45 -2 -4 1 -11 7 -15 8 -4 9 -3 5 4 -11 18 20 15 38 -4 9 -8 16 -13 16 -9 0
3 13 -1 29 -9 16 -9 31 -12 35 -9 3 4 6 -2 7 -13 0 -10 3 -13 6 -7 3 10 11 9
33 -2 16 -8 38 -15 49 -15 11 0 23 -5 26 -10 4 -6 11 -8 16 -5 5 4 9 -2 9 -12
0 -12 3 -14 8 -6 11 17 52 4 52 -16 0 -9 3 -12 8 -6 12 17 32 16 33 -2 0 -10
3 -13 5 -6 6 14 31 7 58 -16 11 -9 16 -10 12 -3 -4 6 -2 12 3 12 6 0 11 -4 11
-10 0 -5 9 -10 19 -10 11 0 32 -5 48 -12 15 -6 31 -11 36 -10 4 1 7 -3 7 -9 0
-5 4 -8 8 -5 5 3 21 -2 36 -10 16 -7 35 -14 42 -14 8 0 14 -5 14 -11 0 -5 5
-7 10 -4 14 9 12 -8 -2 -25 -7 -8 -3 -6 10 4 12 11 22 14 22 8 0 -7 3 -11 8
-11 14 3 72 -23 72 -32 0 -5 7 -9 15 -9 8 0 15 -5 15 -12 0 -6 3 -8 7 -5 9 10
34 -14 26 -26 -3 -5 -1 -7 5 -3 6 3 17 0 25 -8 8 -8 18 -12 22 -8 5 4 6 -3 3
-15 -4 -15 -2 -20 7 -16 18 6 69 -71 61 -92 -3 -9 -2 -14 3 -11 13 8 23 -92
16 -150 -13 -94 -82 -205 -169 -268 -34 -25 -126 -67 -126 -58 0 4 -4 2 -8 -5
-4 -6 -21 -14 -37 -17 -17 -2 -30 -5 -30 -6 0 -13 -251 -24 -259 -12 -4 7 -17
7 -36 2 -17 -5 -30 -5 -30 -1 0 3 -8 7 -17 7 -36 1 -86 13 -208 47 -57 17
-147 57 -156 70 -3 5 -9 8 -13 8 -20 -3 -26 0 -20 11 4 6 3 8 -3 5 -5 -3 -26
5 -46 18 -20 14 -38 25 -41 25 -6 0 -12 5 -111 87 -38 32 -72 61 -73 65 -2 5
-8 6 -13 2 -5 -3 -9 1 -9 9 0 12 -48 42 -56 35 -1 -2 -5 -15 -8 -28 -2 -14 -9
-46 -15 -73 -6 -26 -14 -64 -17 -85 -3 -20 -8 -40 -10 -43 -3 -5 -14 -55 -19
-89 -6 -42 -18 -96 -23 -105 -3 -5 -7 -23 -9 -40 -2 -17 -9 -55 -17 -83 l-13
-52 36 -32 c20 -18 36 -37 36 -42 0 -6 9 -10 20 -8 12 1 31 -7 43 -18 12 -12
38 -28 57 -36 19 -8 35 -19 35 -25 0 -5 4 -8 9 -5 11 7 63 -19 54 -27 -3 -4 4
-5 16 -2 11 2 21 -1 21 -6 0 -5 6 -9 13 -8 21 4 47 -13 40 -25 -4 -6 1 -5 10
3 16 12 22 8 18 -12 -1 -5 3 -5 9 -2 16 10 62 -4 54 -16 -4 -8 0 -8 14 0 17 9
23 8 31 -6 6 -11 11 -13 11 -5 0 9 5 10 19 2 11 -5 29 -10 40 -10 12 0 21 -6
21 -12 0 -9 4 -8 10 2 5 8 10 10 10 4 0 -6 19 -12 43 -13 23 -2 48 -3 55 -4 7
0 10 -7 8 -14 -4 -8 -1 -11 5 -8 18 11 59 13 65 3 4 -6 10 -5 15 3 5 8 9 9 9
3 0 -7 13 -10 31 -8 29 4 30 2 18 -14 -13 -16 -12 -16 5 -2 28 22 46 21 47 -3
1 -17 2 -18 6 -4 4 16 13 20 30 15 5 -2 7 -7 5 -12 -2 -5 2 -5 10 0 21 16 72
18 63 3 -6 -9 -4 -10 6 -3 8 5 26 9 42 10 15 1 30 3 35 4 21 7 38 3 50 -10 9
-11 12 -12 10 -1 -2 7 7 15 20 17 17 3 21 0 16 -8 -6 -9 -3 -9 9 0 9 8 22 10
28 6 8 -4 9 -3 5 4 -4 7 -1 12 8 12 9 0 16 -6 16 -12 0 -9 4 -8 10 2 5 8 10
11 10 5 0 -5 5 -3 10 5 9 13 11 13 20 0 8 -13 10 -12 10 3 0 9 5 17 11 17 5 0
8 -4 4 -9 -3 -5 0 -13 6 -17 7 -4 9 -3 6 2 -3 6 -2 16 4 24 7 13 9 13 9 0 0
-10 3 -11 8 -4 11 16 75 37 66 21 -4 -7 1 -4 12 5 10 9 21 16 24 16 3 0 22 7
44 16 21 9 43 13 49 9 5 -3 7 -1 4 4 -8 12 20 26 34 17 5 -3 8 0 7 8 -2 7 3
12 10 10 6 -1 12 2 12 6 0 5 16 14 35 22 19 7 32 17 29 22 -5 7 11 12 19 6 2
-2 15 10 30 26 23 25 29 27 44 15 15 -11 16 -11 5 1 -10 12 -2 23 44 67 31 29
60 51 64 48 5 -3 12 -1 15 5 4 6 3 10 -2 9 -23 -4 -21 4 6 29 16 15 31 34 33
42 2 8 13 25 26 37 12 12 22 27 22 34 0 6 8 18 18 26 9 8 11 12 5 8 -7 -3 -13
-2 -13 3 0 6 7 12 15 16 8 3 15 10 15 16 0 6 9 32 21 57 11 25 23 55 25 67 3
11 7 28 8 36 2 8 9 14 17 12 9 -2 10 0 1 11 -7 8 -9 16 -6 20 13 12 33 260 24
287 -1 3 -3 19 -5 35 -2 17 -6 44 -9 60 -3 17 -8 45 -11 63 -4 17 -12 44 -20
59 -8 15 -12 30 -9 35 3 4 1 8 -5 8 -5 0 -12 13 -16 30 -4 17 -11 30 -16 30
-6 0 -7 5 -4 10 3 6 1 10 -4 10 -6 0 -11 5 -11 11 0 6 -11 25 -25 43 -14 18
-22 36 -17 41 4 5 1 5 -5 1 -7 -4 -13 -3 -13 2 0 19 -178 182 -199 182 -6 0
-11 5 -11 10 0 6 -7 10 -15 10 -8 0 -15 5 -15 10 0 6 -6 10 -14 10 -8 0 -16 3
-18 8 -1 4 -36 23 -75 42 -40 19 -73 37 -73 40 0 3 -8 6 -19 7 -10 1 -38 11
-62 22 -50 23 -287 101 -307 101 -7 0 -10 5 -6 12 4 7 3 8 -5 4 -13 -8 -172
43 -183 59 -4 5 -10 6 -14 3 -4 -4 -20 2 -37 14 -18 13 -27 16 -22 7 5 -9 1
-8 -12 4 -11 9 -25 17 -31 17 -7 0 -12 5 -12 12 0 6 -3 8 -6 5 -8 -8 -64 24
-64 36 0 4 -5 5 -10 2 -6 -3 -13 1 -16 9 -3 9 -10 16 -16 16 -5 0 -16 7 -24
15 -9 8 -12 15 -8 15 4 0 -3 9 -15 19 -14 12 -20 25 -15 32 4 8 3 9 -4 5 -12
-7 -14 1 -16 67 0 15 -3 27 -6 27 -3 0 -5 14 -5 30 -1 17 2 30 7 30 4 0 5 9 3
20 -2 11 3 24 13 30 12 6 13 9 3 10 -10 0 -11 3 -2 13 6 8 8 17 4 20 -3 4 -1
7 5 7 6 0 13 8 17 19 8 26 41 62 49 54 3 -3 6 0 6 8 0 16 75 72 96 72 8 0 14
5 14 10 0 6 3 7 6 4 4 -3 16 0 27 8 15 11 24 12 34 3 11 -9 12 -7 7 8 -4 10
-4 16 0 12 5 -4 20 -2 34 3 18 7 28 6 34 -3 6 -10 8 -10 8 -1 0 7 7 10 17 6
12 -5 14 -3 8 8 -7 11 -5 11 10 -1 11 -9 16 -10 11 -2 -5 8 0 12 14 12 13 0
19 -4 14 -12 -5 -7 -3 -8 7 -2 17 10 98 15 119 7 8 -3 32 -7 53 -8 57 -4 156
-28 151 -37 -3 -4 2 -5 10 -2 9 3 39 -2 68 -11 70 -23 84 -31 80 -46 -2 -10 0
-10 12 1 11 8 16 9 16 1 0 -6 9 -11 20 -11 11 0 20 -5 20 -11 0 -5 5 -7 10 -4
6 3 10 1 10 -4 0 -6 -5 -11 -12 -11 -6 0 -9 -3 -6 -6 4 -3 16 -1 27 6 14 7 21
7 21 0 0 -5 7 -10 15 -10 8 0 15 -5 15 -11 0 -5 5 -7 10 -4 6 3 10 1 10 -4 0
-6 3 -10 8 -9 14 4 52 -13 52 -23 0 -6 5 -7 10 -4 6 3 13 -1 16 -9 3 -9 9 -14
14 -11 4 2 16 -2 26 -10 24 -18 50 -19 52 -2 2 37 15 72 30 84 16 12 15 12 -2
6 -16 -5 -18 -3 -13 11 4 10 10 30 13 44 4 15 12 33 18 41 7 10 7 13 0 8 -7
-4 -9 4 -6 23 2 17 7 28 11 26 3 -2 7 12 8 33 5 67 8 86 14 91 6 5 18 71 21
118 1 12 5 22 10 22 4 0 4 7 1 17 -4 11 -3 14 5 9 8 -4 10 -2 6 8 -5 14 -144
91 -144 80 0 -4 -6 -2 -13 4 -19 16 -165 71 -171 64 -3 -3 -6 0 -6 7 0 7 -6
11 -12 8 -7 -2 -27 2 -44 9 -17 7 -34 10 -38 7 -3 -4 -6 -1 -6 5 0 6 -7 9 -15
6 -8 -3 -20 -2 -27 2 -7 5 -25 9 -40 9 -15 0 -30 4 -33 7 -4 4 -14 4 -23 1 -8
-4 -13 -2 -10 3 4 5 -23 10 -60 12 -36 1 -71 7 -78 13 -8 7 -14 6 -17 -3 -3
-10 -7 -10 -17 -1 -8 7 -20 9 -35 3 -13 -5 -25 -6 -28 -3 -8 8 -217 9 -231 1z"/>
<path d="M2593 3625 c0 -8 4 -12 9 -9 5 3 6 10 3 15 -9 13 -12 11 -12 -6z"/>
<path d="M2675 3620 c-3 -5 -1 -10 4 -10 6 0 11 5 11 10 0 6 -2 10 -4 10 -3 0
-8 -4 -11 -10z"/>
<path d="M2830 3600 c0 -5 5 -10 11 -10 5 0 7 5 4 10 -3 6 -8 10 -11 10 -2 0
-4 -4 -4 -10z"/>
<path d="M2410 3579 c0 -5 5 -7 10 -4 6 3 10 8 10 11 0 2 -4 4 -10 4 -5 0 -10
-5 -10 -11z"/>
<path d="M2736 3578 c3 -4 11 -5 19 -1 21 7 19 12 -4 10 -11 0 -18 -5 -15 -9z"/>
<path d="M2900 3566 c0 -2 8 -10 18 -17 15 -13 16 -12 3 4 -13 16 -21 21 -21
13z"/>
<path d="M2946 3542 c-3 -5 1 -9 9 -9 8 0 12 4 9 9 -3 4 -7 8 -9 8 -2 0 -6 -4
-9 -8z"/>
<path d="M2345 3520 c-3 -6 1 -7 9 -4 18 7 21 14 7 14 -6 0 -13 -4 -16 -10z"/>
<path d="M3053 3505 c0 -8 4 -12 9 -9 5 3 6 10 3 15 -9 13 -12 11 -12 -6z"/>
<path d="M3130 3465 c0 -7 30 -13 34 -7 3 4 -4 9 -15 9 -10 1 -19 0 -19 -2z"/>
<path d="M3244 3442 c4 -3 14 -7 22 -8 9 -1 13 0 10 4 -4 3 -14 7 -22 8 -9 1
-13 0 -10 -4z"/>
<path d="M3100 3426 c0 -2 8 -10 18 -17 15 -13 16 -12 3 4 -13 16 -21 21 -21
13z"/>
<path d="M1855 2600 c-3 -5 -1 -10 4 -10 6 0 11 5 11 10 0 6 -2 10 -4 10 -3 0
-8 -4 -11 -10z"/>
<path d="M1935 2540 c-3 -5 -1 -10 4 -10 6 0 11 5 11 10 0 6 -2 10 -4 10 -3 0
-8 -4 -11 -10z"/>
<path d="M2010 2519 c0 -5 5 -7 10 -4 6 3 10 8 10 11 0 2 -4 4 -10 4 -5 0 -10
-5 -10 -11z"/>
<path d="M2030 2446 c0 -2 7 -7 16 -10 8 -3 12 -2 9 4 -6 10 -25 14 -25 6z"/>
<path d="M2250 2379 c0 -5 5 -7 10 -4 6 3 10 8 10 11 0 2 -4 4 -10 4 -5 0 -10
-5 -10 -11z"/>
<path d="M2370 2380 c0 -5 5 -10 11 -10 5 0 7 5 4 10 -3 6 -8 10 -11 10 -2 0
-4 -4 -4 -10z"/>
<path d="M2370 2339 c0 -5 5 -7 10 -4 6 3 10 8 10 11 0 2 -4 4 -10 4 -5 0 -10
-5 -10 -11z"/>
<path d="M2470 2346 c0 -2 7 -7 16 -10 8 -3 12 -2 9 4 -6 10 -25 14 -25 6z"/>
<path d="M2766 2198 c3 -5 10 -6 15 -3 13 9 11 12 -6 12 -8 0 -12 -4 -9 -9z"/>
<path d="M1520 1600 c-9 -6 -10 -10 -3 -10 6 0 15 5 18 10 8 12 4 12 -15 0z"/>
<path d="M1587 1159 c7 -7 15 -10 18 -7 3 3 -2 9 -12 12 -14 6 -15 5 -6 -5z"/>
<path d="M1650 1099 c0 -5 5 -7 10 -4 6 3 10 8 10 11 0 2 -4 4 -10 4 -5 0 -10
-5 -10 -11z"/>
<path d="M3236 1078 c3 -5 10 -6 15 -3 13 9 11 12 -6 12 -8 0 -12 -4 -9 -9z"/>
<path d="M1735 1060 c-3 -5 -1 -10 4 -10 6 0 11 5 11 10 0 6 -2 10 -4 10 -3 0
-8 -4 -11 -10z"/>
<path d="M3130 1059 c0 -5 5 -7 10 -4 6 3 10 8 10 11 0 2 -4 4 -10 4 -5 0 -10
-5 -10 -11z"/>
<path d="M1775 1040 c3 -5 8 -10 11 -10 2 0 4 5 4 10 0 6 -5 10 -11 10 -5 0
-7 -4 -4 -10z"/>
<path d="M1785 1000 c-3 -6 1 -7 9 -4 18 7 21 14 7 14 -6 0 -13 -4 -16 -10z"/>
<path d="M1906 998 c3 -5 10 -6 15 -3 13 9 11 12 -6 12 -8 0 -12 -4 -9 -9z"/>
<path d="M1836 962 c-3 -5 1 -9 9 -9 8 0 12 4 9 9 -3 4 -7 8 -9 8 -2 0 -6 -4
-9 -8z"/>
<path d="M2045 940 c-3 -6 1 -7 9 -4 18 7 21 14 7 14 -6 0 -13 -4 -16 -10z"/>
<path d="M2215 920 c-3 -5 -1 -10 4 -10 6 0 11 5 11 10 0 6 -2 10 -4 10 -3 0
-8 -4 -11 -10z"/>
<path d="M2535 900 c3 -5 8 -10 11 -10 2 0 4 5 4 10 0 6 -5 10 -11 10 -5 0 -7
-4 -4 -10z"/>
</g>
</svg>
